<svg width="18" height="18" viewBox="0 0 18 18" fill="none" xmlns="http://www.w3.org/2000/svg">
<path id="Vector" d="M0.275635 0.75H3.84863L6.09863 9H13.9849L16.3016 2.05125L17.7244 2.526L15.0656 10.5H6.11063L5.73563 12H16.7756V13.5H3.81563L4.75013 9.75825L2.70263 2.25H0.275635V0.75ZM10.7756 1.5V3.75H13.0256V5.25H10.7756V7.5H9.27563V5.25H7.02563V3.75H9.27563V1.5H10.7756ZM3.27563 15.75C3.27563 15.3522 3.43367 14.9706 3.71497 14.6893C3.99628 14.408 4.37781 14.25 4.77563 14.25C5.17346 14.25 5.55499 14.408 5.83629 14.6893C6.1176 14.9706 6.27563 15.3522 6.27563 15.75C6.27563 16.1478 6.1176 16.5294 5.83629 16.8107C5.55499 17.092 5.17346 17.25 4.77563 17.25C4.37781 17.25 3.99628 17.092 3.71497 16.8107C3.43367 16.5294 3.27563 16.1478 3.27563 15.75ZM13.7756 15.75C13.7756 15.3522 13.9337 14.9706 14.215 14.6893C14.4963 14.408 14.8778 14.25 15.2756 14.25C15.6735 14.25 16.055 14.408 16.3363 14.6893C16.6176 14.9706 16.7756 15.3522 16.7756 15.75C16.7756 16.1478 16.6176 16.5294 16.3363 16.8107C16.055 17.092 15.6735 17.25 15.2756 17.25C14.8778 17.25 14.4963 17.092 14.215 16.8107C13.9337 16.5294 13.7756 16.1478 13.7756 15.75Z" fill="black"/>
</svg>
