<svg width="48" height="49" viewBox="0 0 48 49" fill="none" xmlns="http://www.w3.org/2000/svg">
<g id="arcticons:afwall">
<path id="Vector" d="M30.59 13.6784L35.36 16.6184L24 34.9084L13.67 27.9084L16.78 23.3084L22.3 27.0184L30.56 13.6384L30.59 13.6784Z" stroke="black" stroke-linecap="round" stroke-linejoin="round"/>
<path id="Vector_2" d="M24 4.72852C24 4.72852 12.74 6.72852 8.75 6.72852V26.7285C8.75623 28.1334 9.02765 29.5244 9.55 30.8285C10.0472 32.1183 10.7202 33.3331 11.55 34.4385C12.3876 35.5483 13.3284 36.5763 14.36 37.5085C15.3125 38.391 16.3141 39.219 17.36 39.9885C18.2914 40.6568 19.2559 41.2776 20.25 41.8485C21.25 42.4385 21.96 42.8485 22.38 43.0385L23.38 43.5285C23.5736 43.6209 23.7855 43.6688 24 43.6688C24.2145 43.6688 24.4264 43.6209 24.62 43.5285L25.62 43.0385C26.04 42.8385 26.75 42.4385 27.75 41.8485C28.7441 41.2776 29.7086 40.6568 30.64 39.9885C31.6859 39.219 32.6875 38.391 33.64 37.5085C34.6716 36.5763 35.6125 35.5483 36.45 34.4385C37.2798 33.3331 37.9528 32.1183 38.45 30.8285C38.9724 29.5244 39.2438 28.1334 39.25 26.7285V6.72852C35.26 6.75852 24 4.72852 24 4.72852Z" stroke="black" stroke-linecap="round" stroke-linejoin="round"/>
</g>
</svg>
