<svg width="48" height="49" viewBox="0 0 48 49" fill="none" xmlns="http://www.w3.org/2000/svg">
<g id="arcticons:aftership">
<path id="Vector" d="M24 13.4924L31.288 17.7024L24 21.9094L16.712 17.7004L24 13.4924Z" stroke="black" stroke-linecap="round" stroke-linejoin="round"/>
<path id="Vector_2" d="M16.712 17.7014V26.1194L24 30.3294M24 30.3294L31.288 26.1194V17.7014M24 30.3294V21.9104" stroke="black" stroke-linecap="round" stroke-linejoin="round"/>
<path id="Vector_3" d="M40.905 21.6336C40.9052 18.5729 40.0744 15.5696 38.5014 12.9441C36.9283 10.3187 34.672 8.16948 31.9732 6.72592C29.2743 5.28237 26.2342 4.5986 23.1771 4.74758C20.1201 4.89656 17.1609 5.87269 14.6151 7.57182C12.0694 9.27096 10.0328 11.6293 8.72248 14.3953C7.41218 17.1614 6.87739 20.2312 7.17519 23.2773C7.47298 26.3235 8.59218 29.2316 10.4134 31.6915C12.2346 34.1514 14.6894 36.0707 17.516 37.2446L24 43.7286L30.484 37.2446C33.5688 35.963 36.2048 33.7963 38.0594 31.0179C39.9139 28.2396 40.9047 24.9741 40.905 21.6336Z" stroke="black" stroke-linecap="round" stroke-linejoin="round"/>
</g>
</svg>
