<svg width="48" height="49" viewBox="0 0 48 49" fill="none" xmlns="http://www.w3.org/2000/svg">
<g id="arcticons:akakce">
<path id="Vector" d="M24 45.7285C35.8741 45.7285 45.5 36.1026 45.5 24.2285C45.5 12.3544 35.8741 2.72852 24 2.72852C12.1259 2.72852 2.5 12.3544 2.5 24.2285C2.5 36.1026 12.1259 45.7285 24 45.7285Z" stroke="black" stroke-linecap="round" stroke-linejoin="round"/>
<path id="Vector_2" d="M12.5 23.9125C12.5 23.2602 12.6934 22.6226 13.0558 22.0803C13.4182 21.5379 13.9333 21.1152 14.5359 20.8656C15.1385 20.616 15.8016 20.5507 16.4414 20.678C17.0811 20.8052 17.6688 21.1193 18.13 21.5805L21.342 24.7925L29.872 16.2625C30.3334 15.8019 30.921 15.4884 31.5604 15.3616C32.1999 15.2348 32.8627 15.3003 33.4649 15.55C34.0672 15.7996 34.5819 16.2222 34.9441 16.7642C35.3064 17.3063 35.4998 17.9436 35.5 18.5955C35.5 19.4705 35.152 20.3095 34.534 20.9285L22.983 32.4785C22.7675 32.6941 22.5116 32.8652 22.2299 32.9819C21.9483 33.0986 21.6464 33.1586 21.3415 33.1586C21.0366 33.1586 20.7347 33.0986 20.4531 32.9819C20.1714 32.8652 19.9155 32.6941 19.7 32.4785L13.466 26.2455C13.1596 25.9392 12.9166 25.5754 12.7509 25.1751C12.5851 24.7748 12.4999 24.3458 12.5 23.9125Z" stroke="black" stroke-linecap="round" stroke-linejoin="round"/>
</g>
</svg>
