<svg width="48" height="49" viewBox="0 0 48 49" fill="none" xmlns="http://www.w3.org/2000/svg">
<g id="arcticons:samsung-secure">
<path id="Vector" d="M14.134 36.2286V20.3386H33.866M19.279 36.2286H33.866V25.6786" stroke="black" stroke-linecap="round" stroke-linejoin="round"/>
<path id="Vector_2" d="M19.246 26.8345L23.381 30.9695L28.754 25.5975M19.82 16.3155C19.82 15.2316 20.2506 14.192 21.0171 13.4256C21.7835 12.6591 22.8231 12.2285 23.907 12.2285C24.9909 12.2285 26.0305 12.6591 26.7969 13.4256C27.5634 14.192 27.994 15.2316 27.994 16.3155V20.3385M19.822 16.2305V20.3385" stroke="black" stroke-linecap="round" stroke-linejoin="round"/>
<path id="Vector_3" d="M30.288 44.7945C25.3123 46.3194 19.9526 45.9891 15.2017 43.865C10.4508 41.7409 6.63081 37.9669 4.44932 33.2421C2.26783 28.5173 1.87272 23.1619 3.33718 18.1681C4.80164 13.1743 8.02642 8.88054 12.4141 6.08219C16.8018 3.28384 22.0551 2.1706 27.2007 2.94869C32.3463 3.72678 37.0355 6.34347 40.3996 10.314C43.7638 14.2845 45.5748 19.3398 45.4973 24.5434C45.4198 29.7469 43.4589 34.746 39.978 38.6145" stroke="black" stroke-linecap="round" stroke-linejoin="round"/>
</g>
</svg>
