<svg width="48" height="49" viewBox="0 0 48 49" fill="none" xmlns="http://www.w3.org/2000/svg">
<g id="arcticons:animation-crazy">
<path id="Vector" d="M26.1 25.4864V28.0654M34.594 25.3344V27.5094M41.556 39.5254L19.534 42.6354C19.3882 42.6561 19.2397 42.6472 19.0974 42.6093C18.955 42.5714 18.8218 42.5052 18.7056 42.4147C18.5894 42.3241 18.4927 42.2111 18.4211 42.0824C18.3495 41.9537 18.3046 41.8119 18.289 41.6654L15.937 19.3544C15.9208 19.2023 15.9366 19.0486 15.9834 18.9029C16.0301 18.7573 16.1068 18.6231 16.2085 18.5089C16.3102 18.3947 16.4347 18.303 16.5739 18.2397C16.7132 18.1764 16.8641 18.1429 17.017 18.1414L41.255 17.9124C41.3994 17.911 41.5427 17.938 41.6766 17.9921C41.8105 18.0461 41.9324 18.1261 42.0353 18.2273C42.1383 18.3286 42.2202 18.4492 42.2764 18.5822C42.3327 18.7152 42.3621 18.858 42.363 19.0024L42.5 38.4314C42.504 38.9814 42.1 39.4484 41.556 39.5254Z" stroke="black" stroke-linecap="round" stroke-linejoin="round"/>
<path id="Vector_2" d="M34.343 32.5746C32.906 33.4026 32.417 33.7726 31.569 34.5626C30.379 34.1056 29.285 33.3346 27.772 33.1066M23.808 13.7156C24.022 13.2596 24.772 11.9996 26.568 10.0976C29.676 6.77457 30.828 5.80957 30.828 5.80957C30.828 5.80957 32.248 6.55957 34.098 8.91857C35.974 11.2766 36.028 12.7506 36.028 12.7506C36.028 12.7506 36.698 12.6706 31.231 14.4386C28.176 15.4296 26.863 15.5906 26.3 15.5906M11.819 41.8276L8.32901 40.2276C8.15798 40.1493 8.00943 40.0292 7.89706 39.8784C7.78468 39.7275 7.7121 39.5508 7.68601 39.3646L5.51101 23.8216C5.45501 23.4216 5.61901 23.0216 5.94101 22.7756L9.091 20.3696C9.26882 20.2337 9.47969 20.1478 9.70183 20.1206C9.92397 20.0935 10.1493 20.1262 10.3546 20.2152C10.5599 20.3043 10.7377 20.4466 10.8696 20.6274C11.0015 20.8082 11.0828 21.0209 11.105 21.2436L13.071 40.9336C13.0864 41.0889 13.0606 41.2455 12.9961 41.3876C12.9316 41.5297 12.8308 41.6523 12.7038 41.743C12.5768 41.8337 12.4281 41.8892 12.2728 41.9041C12.1174 41.9189 11.9609 41.8925 11.819 41.8276Z" stroke="black" stroke-linecap="round" stroke-linejoin="round"/>
<path id="Vector_3" d="M26.97 18.0565V18.0025C26.97 17.1185 26.729 16.2875 26.3 15.5905C25.737 14.6805 24.853 13.9825 23.808 13.7145C23.4609 13.607 23.0994 13.5531 22.736 13.5545C22.307 13.5545 21.878 13.6075 21.503 13.7685C20.351 14.1165 19.44 14.9485 18.93 16.0465C18.6499 16.6606 18.504 17.3275 18.502 18.0025V18.1365" stroke="black" stroke-linecap="round" stroke-linejoin="round"/>
<path id="Vector_4" d="M18.93 16.0466C18.368 15.9396 17.43 15.6976 15.795 15.1626C13.491 14.4126 12.365 13.6346 12.365 13.6346C12.365 13.6346 11.909 12.2416 13.41 10.3386C14.911 8.4356 16.063 7.8186 16.063 7.8186C16.063 7.8186 16.974 8.5966 19.493 11.3036C20.753 12.6166 21.289 13.3936 21.503 13.7686H21.53" stroke="black" stroke-linecap="round" stroke-linejoin="round"/>
</g>
</svg>
