<svg width="10" height="8" viewBox="0 0 10 8" fill="none" xmlns="http://www.w3.org/2000/svg">
<path id="Vector" d="M4.22783 0.535837L4.65007 0.12915C4.82886 -0.0430502 5.11797 -0.0430502 5.29486 0.12915L8.99237 3.68857C9.17116 3.86077 9.17116 4.13923 8.99237 4.3096L5.29486 7.87085C5.11607 8.04305 4.82696 8.04305 4.65007 7.87085L4.22783 7.46416C4.04714 7.29013 4.05094 7.00618 4.23544 6.83581L6.52736 4.73277H1.06098C0.808008 4.73277 0.604492 4.53675 0.604492 4.29311V3.70689C0.604492 3.46325 0.808008 3.26723 1.06098 3.26723H6.52736L4.23544 1.16419C4.04904 0.993817 4.04523 0.70987 4.22783 0.535837Z" fill="#787878"/>
</svg>
