<svg width="63" height="62" viewBox="0 0 63 62" fill="none" xmlns="http://www.w3.org/2000/svg">
<g id="carbon:delivery-truck">
<path id="Vector" d="M58.3034 32.1819L52.4909 18.6194C52.3426 18.2692 52.0944 17.9704 51.7775 17.7602C51.4605 17.55 51.0887 17.4378 50.7084 17.4375H44.8959V13.5625C44.8959 13.0486 44.6917 12.5558 44.3284 12.1925C43.965 11.8291 43.4722 11.625 42.9584 11.625H6.14587C5.63202 11.625 5.13921 11.8291 4.77585 12.1925C4.4125 12.5558 4.20837 13.0486 4.20837 13.5625V46.5C4.20837 47.0139 4.4125 47.5067 4.77585 47.87C5.13921 48.2334 5.63202 48.4375 6.14587 48.4375H10.2921C10.7383 50.0793 11.7123 51.5286 13.0639 52.5619C14.4155 53.5952 16.0695 54.1551 17.7709 54.1551C19.4722 54.1551 21.1263 53.5952 22.4778 52.5619C23.8294 51.5286 24.8035 50.0793 25.2496 48.4375H37.4171C37.8633 50.0793 38.8373 51.5286 40.1889 52.5619C41.5405 53.5952 43.1945 54.1551 44.8959 54.1551C46.5972 54.1551 48.2513 53.5952 49.6028 52.5619C50.9544 51.5286 51.9285 50.0793 52.3746 48.4375H56.5209C57.0347 48.4375 57.5275 48.2334 57.8909 47.87C58.2542 47.5067 58.4584 47.0139 58.4584 46.5V32.9375C58.4579 32.6778 58.4052 32.4208 58.3034 32.1819ZM44.8959 21.3125H49.4296L53.5759 31H44.8959V21.3125ZM17.7709 50.375C17.0045 50.375 16.2553 50.1477 15.618 49.7219C14.9808 49.2962 14.4841 48.691 14.1908 47.9829C13.8976 47.2748 13.8208 46.4957 13.9703 45.744C14.1198 44.9923 14.4889 44.3019 15.0308 43.76C15.5728 43.218 16.2632 42.849 17.0149 42.6995C17.7666 42.5499 18.5457 42.6267 19.2538 42.92C19.9618 43.2133 20.567 43.7099 20.9928 44.3472C21.4186 44.9844 21.6459 45.7336 21.6459 46.5C21.6459 47.5277 21.2376 48.5133 20.5109 49.24C19.7842 49.9667 18.7986 50.375 17.7709 50.375ZM37.4171 44.5625H25.2496C24.8035 42.9207 23.8294 41.4714 22.4778 40.4381C21.1263 39.4048 19.4722 38.8449 17.7709 38.8449C16.0695 38.8449 14.4155 39.4048 13.0639 40.4381C11.7123 41.4714 10.7383 42.9207 10.2921 44.5625H8.08337V15.5H41.0209V39.835C40.1386 40.3471 39.3661 41.0282 38.7477 41.8395C38.1293 42.6507 37.6771 43.5761 37.4171 44.5625ZM44.8959 50.375C44.1295 50.375 43.3803 50.1477 42.743 49.7219C42.1058 49.2962 41.6091 48.691 41.3158 47.9829C41.0226 47.2748 40.9458 46.4957 41.0953 45.744C41.2449 44.9923 41.6139 44.3019 42.1558 43.76C42.6978 43.218 43.3882 42.849 44.1399 42.6995C44.8916 42.5499 45.6707 42.6267 46.3788 42.92C47.0868 43.2133 47.692 43.7099 48.1178 44.3472C48.5436 44.9844 48.7709 45.7336 48.7709 46.5C48.7709 47.5277 48.3626 48.5133 47.6359 49.24C46.9092 49.9667 45.9236 50.375 44.8959 50.375ZM54.5834 44.5625H52.3746C51.9462 42.9031 50.9798 41.4325 49.6266 40.3808C48.2734 39.3291 46.6097 38.7556 44.8959 38.75V34.875H54.5834V44.5625Z" fill="white"/>
</g>
</svg>
