<svg width="17" height="13" viewBox="0 0 17 13" fill="none" xmlns="http://www.w3.org/2000/svg">
<path id="Vector" d="M16.1969 4.18076C16.3187 4.08389 16.5 4.17451 16.5 4.32764V10.7183C16.5 11.5464 15.8281 12.2183 15 12.2183H2C1.17188 12.2183 0.5 11.5464 0.5 10.7183V4.33076C0.5 4.17451 0.678125 4.08701 0.803125 4.18389C1.50312 4.72764 2.43125 5.41826 5.61875 7.73389C6.27813 8.21514 7.39062 9.22764 8.5 9.22139C9.61563 9.23076 10.75 8.19639 11.3844 7.73389C14.5719 5.41826 15.4969 4.72451 16.1969 4.18076ZM8.5 8.21826C9.225 8.23076 10.2688 7.30576 10.7937 6.92451C14.9406 3.91514 15.2562 3.65264 16.2125 2.90264C16.3937 2.76201 16.5 2.54326 16.5 2.31201V1.71826C16.5 0.890137 15.8281 0.218262 15 0.218262H2C1.17188 0.218262 0.5 0.890137 0.5 1.71826V2.31201C0.5 2.54326 0.60625 2.75889 0.7875 2.90264C1.74375 3.64951 2.05938 3.91514 6.20625 6.92451C6.73125 7.30576 7.775 8.23076 8.5 8.21826Z" fill="#C8C8C8"/>
</svg>
