<svg width="25" height="24" viewBox="0 0 25 24" fill="none" xmlns="http://www.w3.org/2000/svg">
<g id="gg:menu">
<path id="Vector" d="M2.40698 6C2.40698 5.73478 2.51234 5.48043 2.69988 5.29289C2.88741 5.10536 3.14177 5 3.40698 5H21.407C21.6722 5 21.9266 5.10536 22.1141 5.29289C22.3016 5.48043 22.407 5.73478 22.407 6C22.407 6.26522 22.3016 6.51957 22.1141 6.70711C21.9266 6.89464 21.6722 7 21.407 7H3.40698C3.14177 7 2.88741 6.89464 2.69988 6.70711C2.51234 6.51957 2.40698 6.26522 2.40698 6ZM2.40698 12.032C2.40698 11.7668 2.51234 11.5124 2.69988 11.3249C2.88741 11.1374 3.14177 11.032 3.40698 11.032H21.407C21.6722 11.032 21.9266 11.1374 22.1141 11.3249C22.3016 11.5124 22.407 11.7668 22.407 12.032C22.407 12.2972 22.3016 12.5516 22.1141 12.7391C21.9266 12.9266 21.6722 13.032 21.407 13.032H3.40698C3.14177 13.032 2.88741 12.9266 2.69988 12.7391C2.51234 12.5516 2.40698 12.2972 2.40698 12.032ZM3.40698 17.065C3.14177 17.065 2.88741 17.1704 2.69988 17.3579C2.51234 17.5454 2.40698 17.7998 2.40698 18.065C2.40698 18.3302 2.51234 18.5846 2.69988 18.7721C2.88741 18.9596 3.14177 19.065 3.40698 19.065H21.407C21.6722 19.065 21.9266 18.9596 22.1141 18.7721C22.3016 18.5846 22.407 18.3302 22.407 18.065C22.407 17.7998 22.3016 17.5454 22.1141 17.3579C21.9266 17.1704 21.6722 17.065 21.407 17.065H3.40698Z" fill="black"/>
</g>
</svg>
