<svg width="16" height="14" viewBox="0 0 16 14" fill="none" xmlns="http://www.w3.org/2000/svg">
<path id="Vector" d="M8.00035 1.4207C7.18315 0.669275 6.11351 0.252232 5.00335 0.252197C4.41576 0.252809 3.83408 0.369617 3.29181 0.595899C2.74953 0.82218 2.25735 1.15347 1.8436 1.5707C0.0788516 3.34295 0.0796016 6.11495 1.8451 7.8797L7.3441 13.3787C7.4716 13.6029 7.7176 13.7477 8.00035 13.7477C8.11645 13.7466 8.23067 13.7182 8.33383 13.665C8.43699 13.6117 8.52622 13.535 8.59435 13.4409L14.1556 7.8797C15.9211 6.1142 15.9211 3.34295 14.1541 1.5677C13.7406 1.15123 13.2488 0.82062 12.707 0.59486C12.1653 0.369099 11.5843 0.252647 10.9974 0.252197C9.88722 0.252379 8.81763 0.669402 8.00035 1.4207ZM13.0936 2.6282C14.2659 3.80645 14.2666 5.64695 13.0951 6.8192L8.00035 11.9139L2.9056 6.8192C1.7341 5.64695 1.73485 3.80645 2.9041 2.6312C3.4741 2.0642 4.2196 1.7522 5.00335 1.7522C5.7871 1.7522 6.5296 2.0642 7.0951 2.6297L7.4701 3.0047C7.53969 3.07441 7.62235 3.12971 7.71333 3.16744C7.80432 3.20518 7.90185 3.2246 8.00035 3.2246C8.09885 3.2246 8.19639 3.20518 8.28737 3.16744C8.37836 3.12971 8.46101 3.07441 8.5306 3.0047L8.9056 2.6297C10.0396 1.49795 11.9611 1.50095 13.0936 2.6282Z" fill="black"/>
</svg>
