<svg width="9" height="8" viewBox="0 0 9 8" fill="none" xmlns="http://www.w3.org/2000/svg">
<path id="Vector" d="M7.92857 4.85714H5.35714V7.42857C5.35714 7.74411 5.10125 8 4.78571 8H4.21429C3.89875 8 3.64286 7.74411 3.64286 7.42857V4.85714H1.07143C0.755893 4.85714 0.5 4.60125 0.5 4.28571V3.71429C0.5 3.39875 0.755893 3.14286 1.07143 3.14286H3.64286V0.571428C3.64286 0.255892 3.89875 0 4.21429 0H4.78571C5.10125 0 5.35714 0.255892 5.35714 0.571428V3.14286H7.92857C8.24411 3.14286 8.5 3.39875 8.5 3.71429V4.28571C8.5 4.60125 8.24411 4.85714 7.92857 4.85714Z" fill="#222222"/>
</svg>
