<svg width="16" height="16" viewBox="0 0 16 16" fill="none" xmlns="http://www.w3.org/2000/svg">
<path d="M13.6609 0.565918C14.0516 0.565918 14.3836 0.702637 14.657 0.976074C14.9305 1.24951 15.0672 1.58154 15.0672 1.97217V14.1597C15.0672 14.5503 14.9305 14.8823 14.657 15.1558C14.3836 15.4292 14.0516 15.5659 13.6609 15.5659H1.47345C1.08282 15.5659 0.750793 15.4292 0.477356 15.1558C0.203918 14.8823 0.0671997 14.5503 0.0671997 14.1597V1.97217C0.0671997 1.58154 0.203918 1.24951 0.477356 0.976074C0.750793 0.702637 1.08282 0.565918 1.47345 0.565918H13.6609ZM10.3797 2.90967V4.78467C10.3797 4.91162 10.4236 5.02393 10.5115 5.12158C10.6092 5.20947 10.7215 5.25342 10.8484 5.25342H12.7234C12.8504 5.25342 12.9578 5.20947 13.0457 5.12158C13.1434 5.02393 13.1922 4.91162 13.1922 4.78467V2.90967C13.1922 2.78271 13.1434 2.67529 13.0457 2.5874C12.9578 2.48975 12.8504 2.44092 12.7234 2.44092H10.8484C10.7215 2.44092 10.6092 2.48975 10.5115 2.5874C10.4236 2.67529 10.3797 2.78271 10.3797 2.90967ZM7.5672 5.25342C6.78595 5.25342 6.12189 5.53174 5.57501 6.08838C5.02814 6.63525 4.7547 7.29443 4.7547 8.06592C4.7547 8.84717 5.02814 9.51123 5.57501 10.0581C6.13165 10.605 6.79572 10.8784 7.5672 10.8784C8.34845 10.8784 9.01251 10.605 9.55939 10.0581C10.1063 9.50146 10.3797 8.8374 10.3797 8.06592C10.3797 7.28467 10.1014 6.62061 9.54474 6.07373C8.99786 5.52686 8.33868 5.25342 7.5672 5.25342ZM13.1922 13.2222V7.12842H12.1668C12.1961 7.2749 12.2156 7.43115 12.2254 7.59717C12.2449 7.75342 12.2547 7.90967 12.2547 8.06592C12.2547 8.71045 12.1326 9.3208 11.8885 9.89697C11.6443 10.4634 11.3074 10.9614 10.8777 11.3911C10.4578 11.811 9.95978 12.1431 9.38361 12.3872C8.8172 12.6313 8.21173 12.7534 7.5672 12.7534C6.92267 12.7534 6.31232 12.6313 5.73615 12.3872C5.16974 12.1431 4.67169 11.811 4.242 11.3911C3.82208 10.9614 3.49005 10.4634 3.24591 9.89697C3.00177 9.3208 2.8797 8.71045 2.8797 8.06592C2.8797 7.8999 2.88458 7.73877 2.89435 7.58252C2.91388 7.42627 2.93829 7.2749 2.96759 7.12842H1.9422V13.2222C1.9422 13.3491 1.98615 13.4614 2.07404 13.5591C2.17169 13.647 2.284 13.6909 2.41095 13.6909H12.7234C12.8504 13.6909 12.9578 13.647 13.0457 13.5591C13.1434 13.4614 13.1922 13.3491 13.1922 13.2222Z" fill="#A5A5A5"/>
</svg>
