<svg width="208" height="71" viewBox="0 0 208 71" fill="none" xmlns="http://www.w3.org/2000/svg">
<g id="Organic">
<path id="Vector" d="M184.176 24.7295C184.176 16.6686 188.842 12.6382 198.176 12.6382C201.517 12.6382 204.487 13.0094 207.085 13.7519V20.6725C204.434 19.9301 201.729 19.5589 198.972 19.5589C196.267 19.5589 194.358 20.0096 193.244 20.9112C192.183 21.8127 191.653 23.2446 191.653 25.2068V46.6847C191.653 48.6469 192.183 50.0788 193.244 50.9803C194.358 51.8819 196.32 52.3326 199.131 52.3326C201.941 52.3326 204.619 51.9084 207.165 51.0599V58.0601C204.089 58.8026 201.093 59.1738 198.176 59.1738C188.842 59.1738 184.176 55.1433 184.176 47.0825V24.7295Z" fill="black"/>
<path id="Vector_2" d="M175.761 4.68321C175.761 7.59997 174.303 9.05835 171.386 9.05835C168.469 9.05835 167.011 7.59997 167.011 4.68321C167.011 1.71341 168.469 0.228516 171.386 0.228516C174.303 0.228516 175.761 1.71341 175.761 4.68321ZM167.647 13.5926H175.125V58.7759H167.647V13.5926Z" fill="black"/>
<path id="Vector_3" d="M138.606 15.1041C142 13.6192 145.156 12.8767 148.072 12.8767C151.042 12.8767 153.455 13.7783 155.311 15.5813C157.22 17.3314 158.175 19.8769 158.175 23.218V58.7759H150.538V24.4907C150.538 21.3618 148.974 19.7974 145.845 19.7974C143.565 19.7974 141.258 20.3807 138.924 21.5474V58.7759H131.447V13.0358H138.606V15.1041Z" fill="black"/>
<path id="Vector_4" d="M102.037 45.6506V48.0371C102.037 49.7871 102.435 51.0864 103.23 51.9349C104.079 52.7834 105.696 53.2077 108.083 53.2077C110.522 53.2077 112.749 52.3857 114.765 50.7417V37.4572L107.208 39.5254C105.139 40.1088 103.76 40.8512 103.071 41.7528C102.382 42.6013 102.037 43.9006 102.037 45.6506ZM96.8663 14.1496C99.8891 13.142 103.734 12.6382 108.401 12.6382C117.469 12.6382 122.003 16.7482 122.003 24.9681V58.776H114.844V55.5146C112.511 57.848 109.435 59.0147 105.617 59.0147C98.2981 59.0147 94.6389 55.329 94.6389 47.9575V45.3324C94.6389 42.3626 95.4079 39.9762 96.9458 38.1731C98.4837 36.317 100.95 34.9116 104.344 33.9571L114.765 31.0933V24.9681C114.765 23.0059 114.234 21.6006 113.174 20.7521C112.113 19.8505 109.859 19.3998 106.412 19.3998C103.018 19.3998 99.8361 19.9301 96.8663 20.9907V14.1496Z" fill="black"/>
<path id="Vector_5" d="M91.1213 15.9788H88.4167C87.1969 15.9788 86.1628 16.2174 85.3143 16.6947C86.7992 18.5508 87.5416 21.0168 87.5416 24.0927V30.6156C87.5416 34.3279 86.4014 37.2181 84.1211 39.2864C81.8937 41.3546 78.4997 42.4152 73.9389 42.4683C71.4464 42.4683 70.2002 43.635 70.2002 45.9684C70.2002 47.0821 70.5183 47.8775 71.1547 48.3548C71.8441 48.8321 73.0374 49.0708 74.7344 49.0708H79.3482C86.8787 49.0708 90.644 52.2262 90.644 58.537V59.8893C90.644 67.0486 85.5794 70.6283 75.4503 70.6283H72.348C66.5675 70.6283 62.1923 69.7002 59.2225 67.8441V60.8439C62.7226 63.1242 67.0448 64.2644 72.1889 64.2644H74.7344C77.9163 64.2644 80.1702 63.8932 81.496 63.1508C82.8218 62.4083 83.4847 61.2946 83.4847 59.8097V59.0938C83.4847 57.821 83.14 56.893 82.4506 56.3096C81.8142 55.6732 80.5414 55.355 78.6323 55.355H73.7798C66.9387 55.355 63.5181 53.0482 63.5181 48.4344V47.1616C63.5181 44.1918 64.9235 42.3887 67.7342 41.7523C62.3779 40.2144 59.6998 36.5022 59.6998 30.6156V24.0927C59.6998 20.3274 60.84 17.4106 63.1204 15.3424C65.4538 13.2741 68.6887 12.24 72.8252 12.24C76.9617 12.24 80.1437 12.8764 82.371 14.1492C83.4847 10.7551 86.0037 9.05811 89.9281 9.05811H91.1213V15.9788ZM80.0641 30.5361V24.1722C80.0641 22.21 79.5603 20.7782 78.5527 19.8766C77.5451 18.9221 75.9011 18.4448 73.6207 18.4448C71.3403 18.4448 69.6964 18.9221 68.6887 19.8766C67.6811 20.7782 67.1773 22.21 67.1773 24.1722V30.5361C67.1773 32.4983 67.6811 33.9566 68.6887 34.9112C69.6964 35.8128 71.3403 36.2635 73.6207 36.2635C75.9011 36.2635 77.5451 35.8128 78.5527 34.9112C79.5603 33.9566 80.0641 32.4983 80.0641 30.5361Z" fill="black"/>
<path id="Vector_6" d="M54.4543 12.7969H56.2839V19.8766H53.8975C51.405 19.8766 48.6738 20.8843 45.704 22.8995V58.7756H38.2265V13.0355H45.3858V16.3765C45.5449 16.2705 45.8366 16.0583 46.2609 15.7402C46.7381 15.422 47.0298 15.2363 47.1359 15.1833C47.295 15.0773 47.5601 14.8916 47.9314 14.6265C48.3556 14.3613 48.6473 14.2022 48.8064 14.1492C48.9655 14.0962 49.2041 13.9901 49.5223 13.831C49.8935 13.6189 50.1852 13.4863 50.3974 13.4333C50.6095 13.3802 50.8746 13.3007 51.1928 13.1946C51.5641 13.0355 51.9088 12.956 52.227 12.956C53.1815 12.8499 53.924 12.7969 54.4543 12.7969Z" fill="black"/>
<path id="Vector_7" d="M21.6947 17.4109C21.6947 13.0623 19.3878 10.888 14.774 10.888C10.1603 10.888 7.85337 13.0623 7.85337 17.4109V46.2073C7.85337 50.609 10.1603 52.8098 14.774 52.8098C19.3878 52.8098 21.6947 50.609 21.6947 46.2073V17.4109ZM0.375854 17.1723C0.375854 13.1949 1.56908 10.013 3.95552 7.62653C6.39499 5.24009 9.97465 4.04688 14.6945 4.04688C19.4674 4.04688 23.0736 5.26661 25.513 7.70608C27.9525 10.0925 29.1722 13.2479 29.1722 17.1723V46.5255C29.1722 50.4499 27.9525 53.6053 25.513 55.9917C23.0736 58.3782 19.4939 59.5714 14.774 59.5714C10.0542 59.5714 6.47454 58.3782 4.03506 55.9917C1.59559 53.6053 0.375854 50.4499 0.375854 46.5255V17.1723Z" fill="black"/>
</g>
</svg>
