<svg width="78" height="54" viewBox="0 0 78 54" fill="none" xmlns="http://www.w3.org/2000/svg">
<path d="M0.324802 0.491455L2.71124 1.28693C6.80117 2.70795 11.1687 3.14402 15.4588 2.5597C19.9669 1.8601 24.5811 2.48178 28.7433 4.34953C30.9498 5.28909 32.8863 6.76564 34.3764 8.64475C35.8665 10.5239 36.8629 12.7458 37.2749 15.1084C37.6939 17.3804 37.6511 19.7135 37.1488 21.9686C36.6465 24.2237 35.6952 26.3545 34.3515 28.2338C34.4708 28.6515 34.5901 29.0691 34.6895 29.4867C35.4973 32.9212 35.8978 36.4389 35.8828 39.9672H31.9054C31.7184 37.0792 31.3263 34.2083 30.732 31.376C27.9728 32.8659 24.8786 33.6258 21.7431 33.5834C18.8188 33.5814 15.9245 32.9931 13.2315 31.8533C-1.90255 25.39 0.0861588 3.89213 0.0861588 2.99722L0.324802 0.491455ZM14.7827 28.1941C19.9732 30.4015 26.1779 30.0237 29.6581 27.2991C29.0699 25.3324 28.2628 23.4379 27.2518 21.6512C26.4659 20.3654 25.5387 19.1714 24.4875 18.0915C23.4134 17 22.2037 16.051 20.888 15.2675C18.1693 13.6418 15.1541 12.5737 12.0184 12.1254V10.1367C15.6263 10.0118 19.2121 10.748 22.4789 12.2844C25.8191 13.9143 28.6518 16.4238 30.6724 19.5432C31.4218 20.7346 32.0863 21.9773 32.6611 23.2621C33.5828 20.9042 33.8441 18.3396 33.4168 15.8442C33.1368 14.0972 32.4167 12.4503 31.3242 11.0585C30.2317 9.66683 28.8028 8.5762 27.1723 7.88942C24.7945 6.77805 22.2 6.20754 19.5754 6.21891C18.3424 6.21891 17.1293 6.33823 15.8566 6.43767C11.8706 6.95195 7.82352 6.71587 3.92435 5.74162C4.06356 11.2304 5.05791 24.0576 14.7827 28.1941Z" fill="#17C548"/>
<path fill-rule="evenodd" clip-rule="evenodd" d="M74.1664 18.2914C74.6807 18.3992 75.1682 18.6087 75.6004 18.9076C76.0342 19.2076 76.4034 19.5915 76.6862 20.0368C76.969 20.482 77.1596 20.9794 77.2467 21.4996C77.3339 22.0198 77.3158 22.5521 77.1935 23.0652L77.1886 23.0857L77.1885 23.0856C76.0132 27.7967 73.728 35.3615 68.581 41.0578C65.9797 43.9367 62.6342 46.3543 58.3432 47.6694C54.0552 48.9836 48.9481 49.1585 42.8789 47.7467C41.8092 47.4978 41.1437 46.4289 41.3926 45.3591C41.6414 44.2893 42.7104 43.6238 43.7801 43.8727C49.2893 45.1543 53.6717 44.9411 57.1778 43.8666C60.6809 42.793 63.4342 40.8213 65.6298 38.3913C70.0594 33.489 72.1615 26.7909 73.3159 22.1769C57.0528 18.7113 48.6665 21.0496 43.8928 25.3277C38.9666 29.7424 37.293 36.6507 35.5816 44.0073L33.7792 51.7552C33.5304 52.825 32.4614 53.4905 31.3917 53.2416C30.3219 52.9927 29.6564 51.9238 29.9053 50.854L31.7077 43.1061C31.7299 43.0105 31.7522 42.9147 31.7745 42.8186C33.4012 35.8221 35.2906 27.6959 41.2383 22.3657C47.4172 16.8283 57.4022 14.7154 74.1664 18.2914Z" fill="#17C548"/>
<path fill-rule="evenodd" clip-rule="evenodd" d="M54.2726 33.8096C54.1583 34.902 53.1802 35.6949 52.0878 35.5807C44.6756 34.8054 40.6212 37.1122 38.4032 39.3533C37.2597 40.5087 36.5429 41.7098 36.1142 42.6167C35.9006 43.0688 35.7613 43.4419 35.6782 43.6908C35.6367 43.815 35.6094 43.9075 35.5941 43.9624C35.5864 43.9898 35.5817 44.0078 35.5797 44.0156L35.5797 44.0155L35.5806 44.012L35.5811 44.0098C35.5804 44.0127 35.5797 44.0156 35.579 44.0185C35.5788 44.0195 35.5786 44.02 35.5786 44.02L35.5788 44.0195L35.5797 44.0156C35.5794 44.0168 35.5792 44.0178 35.579 44.0185C35.3254 45.0818 34.2601 45.7418 33.194 45.4938C32.1243 45.245 31.4588 44.176 31.7077 43.1062L33.6446 43.5568" fill="#17C548"/>
</svg>
