<svg width="44" height="36" viewBox="0 0 44 36" fill="none" xmlns="http://www.w3.org/2000/svg">
<path d="M2.12 2.94653L3.32 3.34653C5.37659 4.06108 7.57274 4.28035 9.73 3.98653C11.9969 3.63474 14.3171 3.94735 16.41 4.88653C17.5195 5.35898 18.4933 6.10145 19.2425 7.04634C19.9918 7.99124 20.4928 9.10854 20.7 10.2965C20.9107 11.439 20.8892 12.6122 20.6366 13.7461C20.3841 14.8801 19.9057 15.9515 19.23 16.8965C19.29 17.1065 19.35 17.3165 19.4 17.5265C19.8062 19.2536 20.0075 21.0224 20 22.7965H18C17.906 21.3444 17.7088 19.9007 17.41 18.4765C16.0226 19.2257 14.4667 19.6078 12.89 19.5865C11.4195 19.5855 9.96418 19.2897 8.61 18.7165C1 15.4665 2 4.65653 2 4.20653L2.12 2.94653ZM9.39 16.8765C12 17.9865 15.12 17.7965 16.87 16.4265C16.5742 15.4376 16.1684 14.4849 15.66 13.5865C15.2648 12.9399 14.7986 12.3396 14.27 11.7965C13.7299 11.2477 13.1216 10.7705 12.46 10.3765C11.0929 9.55908 9.5768 9.02198 8 8.79653V7.79653C9.81422 7.73373 11.6173 8.10395 13.26 8.87653C14.9396 9.69608 16.364 10.958 17.38 12.5265C17.7568 13.1256 18.091 13.7505 18.38 14.3965C18.8435 13.2109 18.9749 11.9213 18.76 10.6665C18.6192 9.78807 18.2571 8.95991 17.7078 8.2601C17.1584 7.56029 16.4399 7.01187 15.62 6.66653C14.4244 6.10769 13.1198 5.82081 11.8 5.82653C11.18 5.82653 10.57 5.88653 9.93 5.93653C7.92568 6.19514 5.89067 6.07643 3.93 5.58653C4 8.34653 4.5 14.7965 9.39 16.8765Z" fill="#17C548"/>
<g clip-path="url(#clip0_0_1)">
<path d="M23.7447 25.7344C35.3888 28.4431 38.63 18.7556 39.8001 14.0657C39.8306 13.9379 39.8351 13.8052 39.8134 13.6755C39.7916 13.5458 39.7441 13.4218 39.6736 13.3109C39.6032 13.1999 39.5111 13.1042 39.403 13.0294C39.2949 12.9546 39.1728 12.9023 39.0441 12.8755C22.4272 9.33027 20.5611 17.3521 18.8747 24.6015L17.9684 28.4975" stroke="#17C548" stroke-width="2" stroke-linecap="round" stroke-linejoin="round"/>
<path d="M18.8747 24.6014C18.8747 24.6014 20.2342 18.7574 28.2527 19.5961" stroke="#17C548" stroke-width="2" stroke-linecap="round" stroke-linejoin="round"/>
</g>
<defs>
<clipPath id="clip0_0_1">
<rect width="24" height="24" fill="white" transform="translate(20.0311 6.38989) rotate(13.0957)"/>
</clipPath>
</defs>
</svg>
