<svg width="64" height="64" viewBox="0 0 64 64" fill="none" xmlns="http://www.w3.org/2000/svg">
<g id="mingcute:refresh-3-line" clip-path="url(#clip0_1_22)">
<g id="Group">
<path id="Vector" d="M53.3333 24C54.0406 24 54.7189 24.281 55.219 24.7811C55.7191 25.2812 56 25.9594 56 26.6667V29.3334C56 34.9913 53.7524 40.4175 49.7516 44.4183C45.7508 48.4191 40.3246 50.6667 34.6667 50.6667H25.104L27.2187 52.7814C27.7044 53.2843 27.9732 53.9579 27.9671 54.6571C27.9611 55.3563 27.6806 56.0251 27.1862 56.5195C26.6918 57.014 26.0229 57.2944 25.3237 57.3005C24.6245 57.3066 23.9509 57.0378 23.448 56.552L16.792 49.896C16.3788 49.489 16.11 48.958 16.0267 48.384L16 47.976C16.0044 47.3523 16.2281 46.75 16.632 46.2747L16.7813 46.1147L23.448 39.448C23.9509 38.9623 24.6245 38.6935 25.3237 38.6996C26.0229 38.7056 26.6918 38.9861 27.1862 39.4805C27.6806 39.9749 27.9611 40.6438 27.9671 41.343C27.9732 42.0421 27.7044 42.7158 27.2187 43.2187L25.104 45.3334H34.6667C38.9101 45.3334 42.9798 43.6476 45.9804 40.6471C48.981 37.6465 50.6667 33.5768 50.6667 29.3334V26.6667C50.6667 25.9594 50.9476 25.2812 51.4477 24.7811C51.9478 24.281 52.6261 24 53.3333 24ZM40.552 7.44803L47.2187 14.1147C47.7186 14.6148 47.9994 15.2929 47.9994 16C47.9994 16.7071 47.7186 17.3853 47.2187 17.8854L40.552 24.552C40.306 24.8067 40.0118 25.0099 39.6864 25.1496C39.3611 25.2894 39.0111 25.363 38.6571 25.366C38.303 25.3691 37.9518 25.3016 37.6241 25.1676C37.2964 25.0335 36.9987 24.8355 36.7483 24.5851C36.4979 24.3347 36.2999 24.037 36.1658 23.7092C36.0317 23.3815 35.9643 23.0304 35.9673 22.6763C35.9704 22.3222 36.044 21.9723 36.1837 21.6469C36.3235 21.3216 36.5266 21.0274 36.7813 20.7814L38.896 18.6667H29.3333C25.0899 18.6667 21.0202 20.3524 18.0196 23.353C15.019 26.3536 13.3333 30.4232 13.3333 34.6667V37.3334C13.3333 38.0406 13.0524 38.7189 12.5523 39.219C12.0522 39.7191 11.3739 40 10.6667 40C9.95942 40 9.28115 39.7191 8.78105 39.219C8.28095 38.7189 8 38.0406 8 37.3334V34.6667C8 29.0087 10.2476 23.5825 14.2484 19.5817C18.2492 15.581 23.6754 13.3334 29.3333 13.3334H38.896L36.7813 11.2187C36.2956 10.7158 36.0268 10.0421 36.0329 9.34296C36.0389 8.64377 36.3194 7.97493 36.8138 7.48051C37.3082 6.98609 37.9771 6.70564 38.6763 6.69956C39.3755 6.69349 40.0491 6.96227 40.552 7.44803Z" fill="white"/>
</g>
</g>
<defs>
<clipPath id="clip0_1_22">
<rect width="64" height="64" fill="white"/>
</clipPath>
</defs>
</svg>
