<svg width="55" height="54" viewBox="0 0 55 54" fill="none" xmlns="http://www.w3.org/2000/svg">
<g id="simple-icons:codefresh" clip-path="url(#clip0_1_30)">
<path id="Vector" d="M0.666656 6.38989C3.82116 12.4874 3.91791 18.1821 7.36491 29.7899C11.5387 41.8071 26.9467 42.6171 28.0874 42.6396C29.1224 44.2731 31.4917 46.4736 36.9209 47.6121L37.5239 44.7501C32.8394 43.7691 31.1249 41.9624 30.5354 40.9701L30.5242 40.9836C30.7199 39.8946 33.9509 28.8854 27.5474 19.9416C16.8262 8.06164 0.666656 6.38989 0.666656 6.38989ZM54.6667 8.27989C45.8962 9.65464 45.0074 6.20989 28.8524 15.2391C31.4852 18.3148 33.3849 21.9484 34.4081 25.8656C35.4312 29.7828 35.5511 33.8813 34.7587 37.8516C43.1354 34.5081 46.3822 28.9056 47.3722 23.3031C47.3722 23.3031 50.2297 12.6921 54.6667 8.27989ZM28.8524 15.2391L28.8479 15.2346V15.2436L28.8524 15.2391ZM6.61341 11.7449C6.61341 11.7449 18.8129 14.9534 25.8352 37.7166C19.2089 35.7164 16.3784 29.1756 15.4177 26.0886H15.4312C13.6772 20.6724 10.6553 15.7543 6.61341 11.7449Z" fill="white"/>
</g>
<defs>
<clipPath id="clip0_1_30">
<rect width="54" height="54" fill="white" transform="translate(0.666656)"/>
</clipPath>
</defs>
</svg>
