<svg width="24" height="24" viewBox="0 0 24 24" fill="none" xmlns="http://www.w3.org/2000/svg">
<g id="solar:user-circle-linear">
<g id="Group">
<path id="Vector" d="M12 12C13.6569 12 15 10.6569 15 9C15 7.34315 13.6569 6 12 6C10.3431 6 9 7.34315 9 9C9 10.6569 10.3431 12 12 12Z" stroke="black" stroke-width="1.5"/>
<path id="Vector_2" d="M12 22C17.5228 22 22 17.5228 22 12C22 6.47715 17.5228 2 12 2C6.47715 2 2 6.47715 2 12C2 17.5228 6.47715 22 12 22Z" stroke="black" stroke-width="1.5"/>
<path id="Vector_3" d="M17.97 20C17.81 17.108 16.925 15 12 15C7.07503 15 6.19003 17.108 6.03003 20" stroke="black" stroke-width="1.5" stroke-linecap="round"/>
</g>
</g>
</svg>
