<svg width="18" height="14" viewBox="0 0 18 14" fill="none" xmlns="http://www.w3.org/2000/svg">
<path d="M17.0359 1.74561C16.6141 2.40186 16.0516 2.98779 15.3484 3.50342V3.92529C15.3484 6.38623 14.4578 8.62451 12.6766 10.6401C10.9188 12.6323 8.57501 13.6284 5.64532 13.6284C3.77032 13.6284 2.03595 13.1128 0.4422 12.0815C0.8172 12.1284 1.08673 12.1519 1.25079 12.1519C2.82111 12.1519 4.22736 11.6597 5.46954 10.6753C4.74298 10.6519 4.08673 10.4292 3.50079 10.0073C2.91486 9.56201 2.51642 8.99951 2.30548 8.31982C2.58673 8.3667 2.79767 8.39014 2.93829 8.39014C3.17267 8.39014 3.47736 8.34326 3.85236 8.24951C3.07892 8.08545 2.42267 7.69873 1.88361 7.08936C1.36798 6.45654 1.11017 5.72998 1.11017 4.90967V4.87451C1.62579 5.15576 2.14142 5.29639 2.65704 5.29639C1.64923 4.64014 1.14532 3.69092 1.14532 2.44873C1.14532 1.86279 1.29767 1.30029 1.60236 0.76123C3.40704 2.98779 5.73907 4.17139 8.59845 4.31201C8.55157 4.14795 8.52814 3.89014 8.52814 3.53857C8.52814 2.57764 8.85626 1.76904 9.51251 1.11279C10.1688 0.456543 10.9774 0.128418 11.9383 0.128418C12.8992 0.128418 13.7195 0.491699 14.3992 1.21826C15.1024 1.10107 15.8289 0.819824 16.5789 0.374512C16.3445 1.19482 15.8406 1.82764 15.0672 2.27295C15.7938 2.20264 16.45 2.02686 17.0359 1.74561Z" fill="#A5A5A5"/>
</svg>
