<svg width="24" height="25" viewBox="0 0 24 25" fill="none" xmlns="http://www.w3.org/2000/svg">
<g id="uil:folder">
<path id="Vector" d="M19 6.14529H12.72L12.4 5.14529C12.1926 4.55852 11.8077 4.05079 11.2989 3.69245C10.7901 3.3341 10.1824 3.14289 9.56 3.14529H5C4.20435 3.14529 3.44129 3.46136 2.87868 4.02397C2.31607 4.58657 2 5.34964 2 6.14529V19.1453C2 19.9409 2.31607 20.704 2.87868 21.2666C3.44129 21.8292 4.20435 22.1453 5 22.1453H19C19.7956 22.1453 20.5587 21.8292 21.1213 21.2666C21.6839 20.704 22 19.9409 22 19.1453V9.14529C22 8.34964 21.6839 7.58658 21.1213 7.02397C20.5587 6.46136 19.7956 6.14529 19 6.14529ZM20 19.1453C20 19.4105 19.8946 19.6649 19.7071 19.8524C19.5196 20.0399 19.2652 20.1453 19 20.1453H5C4.73478 20.1453 4.48043 20.0399 4.29289 19.8524C4.10536 19.6649 4 19.4105 4 19.1453V6.14529C4 5.88007 4.10536 5.62572 4.29289 5.43818C4.48043 5.25064 4.73478 5.14529 5 5.14529H9.56C9.76964 5.14474 9.97416 5.2101 10.1446 5.33213C10.3151 5.45415 10.4429 5.62666 10.51 5.82529L11.05 7.46529C11.1171 7.66391 11.2449 7.83642 11.4154 7.95844C11.5858 8.08047 11.7904 8.14583 12 8.14529H19C19.2652 8.14529 19.5196 8.25064 19.7071 8.43818C19.8946 8.62572 20 8.88007 20 9.14529V19.1453Z" fill="#828282"/>
</g>
</svg>
