<svg width="24" height="25" viewBox="0 0 24 25" fill="none" xmlns="http://www.w3.org/2000/svg">
<g id="uil:calender">
<path id="Vector" d="M19 4.64526H17V3.64526C17 3.38005 16.8946 3.12569 16.7071 2.93816C16.5196 2.75062 16.2652 2.64526 16 2.64526C15.7348 2.64526 15.4804 2.75062 15.2929 2.93816C15.1054 3.12569 15 3.38005 15 3.64526V4.64526H9V3.64526C9 3.38005 8.89464 3.12569 8.70711 2.93816C8.51957 2.75062 8.26522 2.64526 8 2.64526C7.73478 2.64526 7.48043 2.75062 7.29289 2.93816C7.10536 3.12569 7 3.38005 7 3.64526V4.64526H5C4.20435 4.64526 3.44129 4.96133 2.87868 5.52394C2.31607 6.08655 2 6.84961 2 7.64526V19.6453C2 20.4409 2.31607 21.204 2.87868 21.7666C3.44129 22.3292 4.20435 22.6453 5 22.6453H19C19.7956 22.6453 20.5587 22.3292 21.1213 21.7666C21.6839 21.204 22 20.4409 22 19.6453V7.64526C22 6.84961 21.6839 6.08655 21.1213 5.52394C20.5587 4.96133 19.7956 4.64526 19 4.64526ZM20 19.6453C20 19.9105 19.8946 20.1648 19.7071 20.3524C19.5196 20.5399 19.2652 20.6453 19 20.6453H5C4.73478 20.6453 4.48043 20.5399 4.29289 20.3524C4.10536 20.1648 4 19.9105 4 19.6453V12.6453H20V19.6453ZM20 10.6453H4V7.64526C4 7.38005 4.10536 7.12569 4.29289 6.93816C4.48043 6.75062 4.73478 6.64526 5 6.64526H7V7.64526C7 7.91048 7.10536 8.16483 7.29289 8.35237C7.48043 8.53991 7.73478 8.64526 8 8.64526C8.26522 8.64526 8.51957 8.53991 8.70711 8.35237C8.89464 8.16483 9 7.91048 9 7.64526V6.64526H15V7.64526C15 7.91048 15.1054 8.16483 15.2929 8.35237C15.4804 8.53991 15.7348 8.64526 16 8.64526C16.2652 8.64526 16.5196 8.53991 16.7071 8.35237C16.8946 8.16483 17 7.91048 17 7.64526V6.64526H19C19.2652 6.64526 19.5196 6.75062 19.7071 6.93816C19.8946 7.12569 20 7.38005 20 7.64526V10.6453Z" fill="#828282"/>
</g>
</svg>
