<svg width="38" height="40" viewBox="0 0 38 40" fill="none" xmlns="http://www.w3.org/2000/svg">
<path id="Vector" d="M0.324802 0.491455L2.71124 1.28693C6.80117 2.70795 11.1687 3.14402 15.4588 2.5597C19.9669 1.8601 24.5811 2.48178 28.7433 4.34953C30.9498 5.28909 32.8863 6.76564 34.3764 8.64475C35.8665 10.5239 36.8629 12.7458 37.2749 15.1084C37.6939 17.3804 37.6511 19.7135 37.1488 21.9686C36.6465 24.2237 35.6952 26.3545 34.3515 28.2338C34.4708 28.6515 34.5901 29.0691 34.6895 29.4867C35.4973 32.9212 35.8978 36.4389 35.8828 39.9672H31.9054C31.7184 37.0792 31.3263 34.2083 30.732 31.376C27.9728 32.8659 24.8786 33.6258 21.7431 33.5834C18.8188 33.5814 15.9245 32.9931 13.2315 31.8533C-1.90255 25.39 0.0861588 3.89213 0.0861588 2.99722L0.324802 0.491455ZM14.7827 28.1941C19.9732 30.4015 26.1779 30.0237 29.6581 27.2991C29.0699 25.3324 28.2628 23.4379 27.2518 21.6512C26.4659 20.3654 25.5387 19.1714 24.4875 18.0915C23.4134 17 22.2037 16.051 20.888 15.2675C18.1693 13.6418 15.1541 12.5737 12.0184 12.1254V10.1367C15.6263 10.0118 19.2121 10.748 22.4789 12.2844C25.8191 13.9143 28.6518 16.4238 30.6724 19.5432C31.4218 20.7346 32.0863 21.9773 32.6611 23.2621C33.5828 20.9042 33.8441 18.3396 33.4168 15.8442C33.1368 14.0972 32.4167 12.4503 31.3242 11.0585C30.2317 9.66683 28.8028 8.5762 27.1723 7.88942C24.7945 6.77805 22.2 6.20754 19.5754 6.21891C18.3424 6.21891 17.1293 6.33823 15.8566 6.43767C11.8706 6.95195 7.82352 6.71587 3.92435 5.74162C4.06356 11.2304 5.05791 24.0576 14.7827 28.1941Z" fill="#17C548"/>
</svg>
