<svg width="49" height="38" viewBox="0 0 49 38" fill="none" xmlns="http://www.w3.org/2000/svg">
<path id="Vector (Stroke)" fill-rule="evenodd" clip-rule="evenodd" d="M45.1664 2.29138C45.6807 2.39919 46.1682 2.60868 46.6004 2.90757C47.0342 3.20757 47.4034 3.59154 47.6862 4.03676C47.969 4.48197 48.1596 4.97938 48.2467 5.49958C48.3339 6.01977 48.3158 6.55215 48.1935 7.0652L48.1886 7.08565L48.1885 7.08562C47.0132 11.7967 44.728 19.3615 39.581 25.0578C36.9797 27.9367 33.6342 30.3543 29.3432 31.6694C25.0552 32.9836 19.9481 33.1585 13.8789 31.7467C12.8092 31.4978 12.1437 30.4289 12.3926 29.3591C12.6414 28.2893 13.7104 27.6238 14.7801 27.8727C20.2893 29.1543 24.6717 28.9411 28.1778 27.8666C31.6809 26.793 34.4342 24.8213 36.6298 22.3913C41.0594 17.489 43.1615 10.7909 44.3159 6.17685C28.0528 2.71128 19.6665 5.04957 14.8928 9.32769C9.96661 13.7424 8.29297 20.6507 6.58162 28.0073L4.77923 35.7552C4.53037 36.825 3.46142 37.4905 2.39165 37.2416C1.32189 36.9927 0.656412 35.9238 0.90527 34.854L2.70766 27.1061C2.7299 27.0105 2.75218 26.9147 2.77451 26.8186C4.40121 19.8221 6.29056 11.6959 12.2383 6.36569C18.4172 0.8283 28.4022 -1.28459 45.1664 2.29138Z" fill="#17C548"/>
</svg>
