<svg width="24" height="13" viewBox="0 0 24 13" fill="none" xmlns="http://www.w3.org/2000/svg">
<path id="Vector (Stroke)" fill-rule="evenodd" clip-rule="evenodd" d="M23.2726 0.809621C23.1583 1.90199 22.1802 2.69492 21.0878 2.58067C13.6756 1.80544 9.62124 4.11218 7.40322 6.3533C6.25975 7.50868 5.54287 8.70981 5.11424 9.61675C4.90061 10.0688 4.76134 10.4419 4.67819 10.6908C4.63669 10.815 4.60944 10.9075 4.59409 10.9624C4.58641 10.9898 4.58173 11.0078 4.57975 11.0156L4.57972 11.0155L4.58056 11.012L4.58106 11.0098C4.58038 11.0127 4.57969 11.0156 4.579 11.0185C4.57876 11.0195 4.57864 11.02 4.57864 11.02L4.57877 11.0195L4.57975 11.0156C4.57943 11.0168 4.57918 11.0178 4.579 11.0185C4.32536 12.0818 3.2601 12.7418 2.19404 12.4938C1.12427 12.245 0.458797 11.176 0.707654 10.1062L2.64463 10.5568" fill="#17C548"/>
</svg>
