<svg width="19" height="14" viewBox="0 0 19 14" fill="none" xmlns="http://www.w3.org/2000/svg">
<path d="M18.3992 3.1167C18.4695 4.38232 18.5047 5.63623 18.5047 6.87842C18.5047 8.12061 18.4695 9.37451 18.3992 10.6401C18.3992 11.437 18.1414 12.1167 17.6258 12.6792C17.1336 13.2183 16.5242 13.4878 15.7977 13.4878C13.993 13.5815 11.8953 13.6284 9.5047 13.6284C7.11407 13.6284 5.01642 13.5815 3.21173 13.4878C2.48517 13.4878 1.86407 13.2183 1.34845 12.6792C0.856262 12.1167 0.610168 11.437 0.610168 10.6401C0.539856 9.37451 0.5047 8.12061 0.5047 6.87842C0.5047 6.05811 0.551575 4.8042 0.645325 3.1167C0.645325 2.31982 0.891418 1.65186 1.38361 1.11279C1.87579 0.550293 2.48517 0.269043 3.21173 0.269043C4.92267 0.175293 6.91486 0.128418 9.18829 0.128418H9.5047H9.82111C12.0945 0.128418 14.0867 0.175293 15.7977 0.269043C16.5242 0.269043 17.1336 0.550293 17.6258 1.11279C18.1414 1.65186 18.3992 2.31982 18.3992 3.1167ZM7.78204 10.3237L12.8797 6.87842L7.78204 3.39795V10.3237Z" fill="#A5A5A5"/>
</svg>
